<svg width="13" height="18" viewBox="0 0 13 18" fill="none" xmlns="http://www.w3.org/2000/svg">
<mask id="path-1-inside-1_16_1457" fill="white">
<path d="M11.1408 14.6447C10.9 14.6447 10.6764 14.5785 10.4778 14.472V14.4748C10.4778 14.8536 10.3305 15.2094 10.0634 15.4759C9.79621 15.743 9.4407 15.8903 9.0623 15.8903C8.81798 15.8903 8.59157 15.8224 8.39083 15.7131C8.37057 16.0597 8.23204 16.3836 7.9849 16.631C7.71773 16.8982 7.36222 17.0454 6.98358 17.0454C6.23129 17.0454 5.62038 16.4541 5.57635 15.7129C5.34358 15.8387 5.08042 15.9047 4.80899 15.8872C4.06895 15.8387 3.4894 15.1993 3.4894 14.4312V8.06456L2.76444 9.32052C2.48832 9.8009 1.97144 10.0992 1.41493 10.0992C1.14376 10.0992 0.875887 10.028 0.638645 9.89207C0.343208 9.72079 0.131877 9.44585 0.0439945 9.11693C-0.044352 8.7878 0.00135139 8.44359 0.17216 8.1486C0.172395 8.1486 2.54415 4.0414 2.68884 3.78911C2.70604 3.75118 2.75505 3.64116 2.79675 3.54739C2.83657 3.45786 2.87073 3.36598 2.90347 3.27362C3.61873 1.25434 5.38976 1.14441e-05 7.52569 1.14441e-05C10.2994 1.14441e-05 12.5559 2.44691 12.5559 5.4546L12.5561 13.229C12.5561 13.6073 12.4091 13.9628 12.1422 14.2303C11.875 14.4974 11.5195 14.6447 11.1407 14.6447L11.1408 14.6447ZM7.52571 0.752153C5.69038 0.752153 4.22755 1.78882 3.61242 3.52517C3.57307 3.63543 3.53208 3.74568 3.48425 3.85312C3.34548 4.16435 3.34548 4.16435 3.30638 4.2091L3.30119 4.20463C3.10753 4.57004 2.5322 5.56638 0.823412 8.52503C0.753202 8.64637 0.734588 8.78726 0.770402 8.92201C0.806684 9.05678 0.893622 9.17033 1.01401 9.23983C1.38767 9.45446 1.89941 9.31593 2.11237 8.94487L3.53986 6.47342C3.62515 6.32617 3.79761 6.25384 3.963 6.29861C4.12745 6.34266 4.24171 6.4918 4.24171 6.6619V14.4314C4.24171 14.798 4.5183 15.1144 4.85829 15.1368C5.05431 15.1472 5.23713 15.0814 5.37448 14.9443C5.49935 14.8194 5.56814 14.6531 5.56814 14.4752V9.39386C5.56814 9.18606 5.7366 9.0176 5.94439 9.0176C6.15219 9.0176 6.32064 9.18582 6.32064 9.39386L6.32041 15.6302C6.32041 15.9959 6.61797 16.2934 6.98361 16.2934C7.16125 16.2934 7.32805 16.2246 7.45316 16.0998C7.57803 15.9747 7.64682 15.8079 7.64682 15.6302V9.39385C7.64682 9.18605 7.81504 9.0176 8.02307 9.0176C8.23087 9.0176 8.39932 9.18582 8.39932 9.39385L8.39909 14.4168V14.4752C8.39909 14.8406 8.69665 15.1382 9.06253 15.1382C9.23993 15.1382 9.40627 15.0691 9.53208 14.9438C9.65694 14.8192 9.72574 14.6528 9.72574 14.475V9.39359C9.72574 9.18579 9.89396 9.01734 10.102 9.01734C10.3098 9.01734 10.4782 9.18555 10.4782 9.39359L10.4778 13.2291C10.4778 13.595 10.7753 13.8926 11.1407 13.8926C11.3186 13.8926 11.4849 13.8236 11.6098 13.6989C11.7351 13.5736 11.8037 13.4068 11.8037 13.2291L11.8039 5.45478C11.8039 2.86204 9.88477 0.752232 7.52569 0.752232L7.52571 0.752153Z"/>
</mask>
<path d="M11.1408 14.6447C10.9 14.6447 10.6764 14.5785 10.4778 14.472V14.4748C10.4778 14.8536 10.3305 15.2094 10.0634 15.4759C9.79621 15.743 9.4407 15.8903 9.0623 15.8903C8.81798 15.8903 8.59157 15.8224 8.39083 15.7131C8.37057 16.0597 8.23204 16.3836 7.9849 16.631C7.71773 16.8982 7.36222 17.0454 6.98358 17.0454C6.23129 17.0454 5.62038 16.4541 5.57635 15.7129C5.34358 15.8387 5.08042 15.9047 4.80899 15.8872C4.06895 15.8387 3.4894 15.1993 3.4894 14.4312V8.06456L2.76444 9.32052C2.48832 9.8009 1.97144 10.0992 1.41493 10.0992C1.14376 10.0992 0.875887 10.028 0.638645 9.89207C0.343208 9.72079 0.131877 9.44585 0.0439945 9.11693C-0.044352 8.7878 0.00135139 8.44359 0.17216 8.1486C0.172395 8.1486 2.54415 4.0414 2.68884 3.78911C2.70604 3.75118 2.75505 3.64116 2.79675 3.54739C2.83657 3.45786 2.87073 3.36598 2.90347 3.27362C3.61873 1.25434 5.38976 1.14441e-05 7.52569 1.14441e-05C10.2994 1.14441e-05 12.5559 2.44691 12.5559 5.4546L12.5561 13.229C12.5561 13.6073 12.4091 13.9628 12.1422 14.2303C11.875 14.4974 11.5195 14.6447 11.1407 14.6447L11.1408 14.6447ZM7.52571 0.752153C5.69038 0.752153 4.22755 1.78882 3.61242 3.52517C3.57307 3.63543 3.53208 3.74568 3.48425 3.85312C3.34548 4.16435 3.34548 4.16435 3.30638 4.2091L3.30119 4.20463C3.10753 4.57004 2.5322 5.56638 0.823412 8.52503C0.753202 8.64637 0.734588 8.78726 0.770402 8.92201C0.806684 9.05678 0.893622 9.17033 1.01401 9.23983C1.38767 9.45446 1.89941 9.31593 2.11237 8.94487L3.53986 6.47342C3.62515 6.32617 3.79761 6.25384 3.963 6.29861C4.12745 6.34266 4.24171 6.4918 4.24171 6.6619V14.4314C4.24171 14.798 4.5183 15.1144 4.85829 15.1368C5.05431 15.1472 5.23713 15.0814 5.37448 14.9443C5.49935 14.8194 5.56814 14.6531 5.56814 14.4752V9.39386C5.56814 9.18606 5.7366 9.0176 5.94439 9.0176C6.15219 9.0176 6.32064 9.18582 6.32064 9.39386L6.32041 15.6302C6.32041 15.9959 6.61797 16.2934 6.98361 16.2934C7.16125 16.2934 7.32805 16.2246 7.45316 16.0998C7.57803 15.9747 7.64682 15.8079 7.64682 15.6302V9.39385C7.64682 9.18605 7.81504 9.0176 8.02307 9.0176C8.23087 9.0176 8.39932 9.18582 8.39932 9.39385L8.39909 14.4168V14.4752C8.39909 14.8406 8.69665 15.1382 9.06253 15.1382C9.23993 15.1382 9.40627 15.0691 9.53208 14.9438C9.65694 14.8192 9.72574 14.6528 9.72574 14.475V9.39359C9.72574 9.18579 9.89396 9.01734 10.102 9.01734C10.3098 9.01734 10.4782 9.18555 10.4782 9.39359L10.4778 13.2291C10.4778 13.595 10.7753 13.8926 11.1407 13.8926C11.3186 13.8926 11.4849 13.8236 11.6098 13.6989C11.7351 13.5736 11.8037 13.4068 11.8037 13.2291L11.8039 5.45478C11.8039 2.86204 9.88477 0.752232 7.52569 0.752232L7.52571 0.752153Z" fill="#4CAF4F"/>
<path d="M11.1408 14.6447V13.3113H15.8515L11.8395 15.7802L11.1408 14.6447ZM10.4778 14.472H9.14446V12.2441L11.1079 13.2969L10.4778 14.472ZM10.0634 15.4759L9.12056 14.5331L9.12181 14.5318L10.0634 15.4759ZM8.39083 15.7131L7.05977 15.6353L7.18246 13.5368L9.02851 14.5422L8.39083 15.7131ZM7.9849 16.631L8.9282 17.5733L8.9277 17.5738L7.9849 16.631ZM5.57635 15.7129L4.94239 14.5399L6.78326 13.545L6.90734 15.6338L5.57635 15.7129ZM4.80899 15.8872L4.72351 17.2178L4.72174 17.2177L4.80899 15.8872ZM3.4894 8.06456L2.33464 7.39801L4.82274 3.08751V8.06456H3.4894ZM2.76444 9.32052L1.60846 8.65607L1.60967 8.65397L2.76444 9.32052ZM0.638645 9.89207L-0.0242527 11.049L-0.0300879 11.0456L0.638645 9.89207ZM0.0439945 9.11693L1.33174 8.77126L1.33214 8.77276L0.0439945 9.11693ZM0.17216 8.1486L-0.981701 7.48048L-0.596523 6.81527H0.17216V8.1486ZM2.68884 3.78911L3.90318 4.33972L3.877 4.39745L3.84546 4.45245L2.68884 3.78911ZM2.79675 3.54739L1.57846 3.0056L1.57846 3.00558L2.79675 3.54739ZM2.90347 3.27362L4.16029 3.7188L4.16016 3.71917L2.90347 3.27362ZM12.5559 5.4546L11.2226 5.45464V5.4546H12.5559ZM12.5561 13.229L13.8895 13.2289V13.229H12.5561ZM12.1422 14.2303L13.0859 15.1722L13.085 15.1731L12.1422 14.2303ZM11.1407 14.6447V15.978H6.42998L10.4419 13.5091L11.1407 14.6447ZM7.52571 0.752153V-0.581179H9.29335L8.80774 1.11845L7.52571 0.752153ZM3.61242 3.52517L4.86922 3.97041L4.86819 3.97328L3.61242 3.52517ZM3.48425 3.85312L4.70233 4.39539L4.70202 4.39609L3.48425 3.85312ZM3.30638 4.2091L4.31044 5.08639L3.43819 6.08469L2.43488 5.2182L3.30638 4.2091ZM3.30119 4.20463L2.12308 3.58026L2.90651 2.10202L4.17269 3.19553L3.30119 4.20463ZM0.823412 8.52503L1.97801 9.19188L1.97746 9.19284L0.823412 8.52503ZM0.770402 8.92201L-0.517094 9.26864L-0.518202 9.26447L0.770402 8.92201ZM1.01401 9.23983L0.349902 10.396L0.347411 10.3946L1.01401 9.23983ZM2.11237 8.94487L0.95596 8.28117L0.957794 8.27799L2.11237 8.94487ZM3.53986 6.47342L2.38528 5.80654L2.3861 5.80514L3.53986 6.47342ZM3.963 6.29861L3.61796 7.58653L3.61465 7.58563L3.963 6.29861ZM4.85829 15.1368L4.78787 16.4683L4.7793 16.4678L4.77073 16.4672L4.85829 15.1368ZM5.37448 14.9443L6.31729 15.8871L6.31647 15.8879L5.37448 14.9443ZM6.32064 9.39386H7.65398V9.39391L6.32064 9.39386ZM6.32041 15.6302H4.98708V15.6302L6.32041 15.6302ZM7.45316 16.0998L8.39686 17.0417L8.39506 17.0435L7.45316 16.0998ZM8.39932 9.39385H9.73266V9.39391L8.39932 9.39385ZM8.39909 14.4168H7.06575V14.4167L8.39909 14.4168ZM9.53208 14.9438L10.474 15.8875L10.4731 15.8884L9.53208 14.9438ZM10.4782 9.39359H11.8116V9.39375L10.4782 9.39359ZM10.4778 13.2291H9.14443V13.229L10.4778 13.2291ZM11.6098 13.6989L12.5526 14.6417L12.5517 14.6426L11.6098 13.6989ZM11.8037 13.2291H10.4704V13.2291L11.8037 13.2291ZM11.8039 5.45478H13.1373V5.45482L11.8039 5.45478ZM7.52569 0.752232V2.08556H5.75805L6.24366 0.385937L7.52569 0.752232ZM11.1408 15.978C10.6498 15.978 10.2115 15.8421 9.84772 15.647L11.1079 13.2969C11.1251 13.3061 11.136 13.3097 11.1404 13.3108C11.1441 13.3118 11.1436 13.3113 11.1408 13.3113V15.978ZM11.8111 14.472V14.4748H9.14446V14.472H11.8111ZM11.8111 14.4748C11.8111 15.2062 11.5241 15.9021 11.0049 16.4199L9.12181 14.5318C9.13134 14.5223 9.13606 14.5142 9.13881 14.5075C9.14158 14.5008 9.14446 14.4906 9.14446 14.4748H11.8111ZM11.0062 16.4187C10.4888 16.9361 9.79402 17.2236 9.0623 17.2236V14.557C9.07759 14.557 9.08767 14.5542 9.0945 14.5513C9.10133 14.5485 9.11015 14.5435 9.12056 14.5331L11.0062 16.4187ZM9.0623 17.2236C8.56493 17.2236 8.12113 17.0845 7.75316 16.8841L9.02851 14.5422C9.04587 14.5516 9.05687 14.5552 9.06124 14.5564C9.06498 14.5574 9.06467 14.557 9.0623 14.557V17.2236ZM9.72189 15.7909C9.68353 16.4472 9.41729 17.0837 8.9282 17.5733L7.04159 15.6887C7.04655 15.6838 7.04941 15.6794 7.05182 15.6739C7.05445 15.6679 7.05858 15.6557 7.05977 15.6353L9.72189 15.7909ZM8.9277 17.5738C8.41019 18.0913 7.71542 18.3788 6.98358 18.3788V15.7121C6.9991 15.7121 7.00925 15.7093 7.01607 15.7065C7.02288 15.7036 7.03168 15.6986 7.04209 15.6882L8.9277 17.5738ZM6.98358 18.3788C5.51158 18.3788 4.3304 17.2235 4.24537 15.7919L6.90734 15.6338C6.90869 15.6565 6.91797 15.6764 6.93438 15.692C6.94239 15.6997 6.95051 15.7046 6.95757 15.7075C6.96378 15.71 6.97167 15.7121 6.98358 15.7121V18.3788ZM6.21031 16.8859C5.77964 17.1186 5.269 17.2529 4.72351 17.2178L4.89447 14.5566C4.89449 14.5566 4.89734 14.5569 4.90437 14.5553C4.91189 14.5535 4.92493 14.5493 4.94239 14.5399L6.21031 16.8859ZM4.72174 17.2177C3.2413 17.1206 2.15607 15.8616 2.15607 14.4312H4.82274C4.82274 14.4763 4.8391 14.511 4.85962 14.5336C4.87962 14.5557 4.89319 14.5566 4.89625 14.5568L4.72174 17.2177ZM2.15607 14.4312V8.06456H4.82274V14.4312H2.15607ZM4.64417 8.73111L3.91921 9.98707L1.60967 8.65397L2.33464 7.39801L4.64417 8.73111ZM3.92042 9.98497C3.40521 10.8813 2.4462 11.4325 1.41493 11.4325V8.76583C1.49669 8.76583 1.57143 8.72049 1.60846 8.65607L3.92042 9.98497ZM1.41493 11.4325C0.910719 11.4325 0.41438 11.3003 -0.0242442 11.0489L1.30154 8.7352C1.33739 8.75575 1.3768 8.76583 1.41493 8.76583V11.4325ZM-0.0300879 11.0456C-0.628712 10.6985 -1.06443 10.1338 -1.24415 9.4611L1.33214 8.77276C1.33093 8.76821 1.3276 8.76016 1.32118 8.75179C1.31481 8.74349 1.30891 8.73945 1.30738 8.73857L-0.0300879 11.0456ZM-1.24375 9.46259C-1.42418 8.79044 -1.32972 8.08152 -0.981701 7.48048L1.32602 8.81672C1.32792 8.81344 1.33125 8.80584 1.33268 8.79506C1.33411 8.78425 1.33291 8.77563 1.33174 8.77126L-1.24375 9.46259ZM0.17216 6.81527C-0.481889 6.98671 -0.971446 7.46308 -0.975106 7.46922C-0.97632 7.47128 -0.978135 7.47436 -0.978712 7.47535C-0.979044 7.47592 -0.979612 7.47689 -0.979802 7.47722C-0.979923 7.47742 -0.980166 7.47784 -0.980225 7.47794C-0.980413 7.47827 -0.980355 7.47817 -0.979852 7.4773C-0.978946 7.47574 -0.977428 7.47311 -0.975213 7.46928C-0.970833 7.46171 -0.964253 7.45033 -0.955561 7.43528C-0.938203 7.40525 -0.91269 7.36109 -0.880121 7.3047C-0.814997 7.19196 -0.721792 7.03059 -0.609478 6.83611C-0.384856 6.44715 -0.0838654 5.92591 0.221641 5.39678C0.833682 4.33674 1.46115 3.2497 1.53222 3.12578L3.84546 4.45245C3.77184 4.58081 3.14109 5.67352 2.53102 6.73015C2.22547 7.25936 1.92444 7.78068 1.69977 8.16971C1.58743 8.36422 1.49418 8.52569 1.42898 8.63855C1.3964 8.69497 1.37079 8.73929 1.35331 8.76954C1.34458 8.78465 1.33781 8.79636 1.33319 8.80434C1.33091 8.80829 1.32901 8.81156 1.32763 8.81395C1.32699 8.81505 1.32619 8.81644 1.32542 8.81776C1.32514 8.81825 1.32428 8.81972 1.32325 8.82148C1.3226 8.82259 1.32073 8.82577 1.31948 8.82789C1.31579 8.83409 0.826209 9.3105 0.17216 9.48193V6.81527ZM1.47451 3.23851C1.48918 3.20614 1.53569 3.10178 1.57846 3.0056L4.01504 4.08919C3.97441 4.18054 3.9229 4.29622 3.90318 4.33972L1.47451 3.23851ZM1.57846 3.00558C1.597 2.96391 1.6175 2.91067 1.64678 2.82808L4.16016 3.71917C4.12396 3.82129 4.07614 3.95181 4.01504 4.0892L1.57846 3.00558ZM1.64665 2.82845C2.54971 0.278965 4.82272 -1.33332 7.52569 -1.33332V1.33334C5.95679 1.33334 4.68774 2.22972 4.16029 3.7188L1.64665 2.82845ZM7.52569 -1.33332C11.1354 -1.33332 13.8892 1.81426 13.8892 5.4546H11.2226C11.2226 3.07956 9.46337 1.33334 7.52569 1.33334V-1.33332ZM13.8892 5.45456L13.8895 13.2289L11.2228 13.229L11.2226 5.45464L13.8892 5.45456ZM13.8895 13.229C13.8895 13.9601 13.6026 14.6545 13.0859 15.1722L11.1985 13.2883C11.2091 13.2778 11.2142 13.2688 11.2171 13.2618C11.22 13.2548 11.2228 13.2445 11.2228 13.229H13.8895ZM13.085 15.1731C12.5674 15.6907 11.8726 15.978 11.1407 15.978V13.3114C11.1564 13.3114 11.1666 13.3085 11.1734 13.3057C11.1802 13.3029 11.189 13.2979 11.1994 13.2875L13.085 15.1731ZM10.4419 13.5091L10.442 13.5091L11.8395 15.7802L11.8395 15.7802L10.4419 13.5091ZM7.52571 2.08549C6.25801 2.08549 5.29673 2.76364 4.86921 3.97041L2.35562 3.07993C3.15837 0.81399 5.12275 -0.581179 7.52571 -0.581179V2.08549ZM4.86819 3.97328C4.82611 4.09123 4.77143 4.24018 4.70233 4.39539L2.26617 3.31085C2.29273 3.25118 2.32004 3.17963 2.35664 3.07706L4.86819 3.97328ZM4.70202 4.39609C4.64096 4.53303 4.5898 4.64868 4.55066 4.72702C4.52637 4.77564 4.48704 4.85057 4.43 4.93356C4.3722 5.01765 4.31508 5.08107 4.31044 5.08639L2.30231 3.33182C2.30544 3.32823 2.30442 3.3294 2.30284 3.33123C2.3008 3.3336 2.29562 3.33964 2.28882 3.34793C2.28178 3.35651 2.27291 3.3676 2.26291 3.38079C2.25283 3.39409 2.24257 3.40824 2.23231 3.42317C2.21142 3.45357 2.19533 3.48019 2.1839 3.50032C2.17322 3.51912 2.16668 3.53213 2.16522 3.53506C2.1637 3.53809 2.16465 3.53631 2.16918 3.5266C2.17357 3.5172 2.17979 3.50367 2.18871 3.48396C2.19755 3.46443 2.20814 3.44084 2.22117 3.41169C2.23418 3.38259 2.24905 3.34924 2.26648 3.31015L4.70202 4.39609ZM2.43488 5.2182L2.4297 5.21373L4.17269 3.19553L4.17787 3.20001L2.43488 5.2182ZM4.4793 4.829C4.27063 5.22274 3.67488 6.25386 1.97801 9.19188L-0.331186 7.85819C1.38952 4.87889 1.94444 3.91734 2.12308 3.58026L4.4793 4.829ZM1.97746 9.19284C2.08414 9.00847 2.11388 8.78602 2.05901 8.57955L-0.518202 9.26447C-0.6447 8.78849 -0.577739 8.28426 -0.330631 7.85723L1.97746 9.19284ZM2.05789 8.57539C2.00303 8.3716 1.86818 8.19337 1.68061 8.0851L0.347411 10.3946C-0.0809315 10.1473 -0.389658 9.74196 -0.517087 9.26864L2.05789 8.57539ZM1.67812 8.08366C1.52635 7.99648 1.37874 7.99706 1.27681 8.0245C1.17528 8.05184 1.04508 8.12589 0.955964 8.28117L3.26878 9.60857C2.68769 10.621 1.35967 10.976 0.349903 10.396L1.67812 8.08366ZM0.957794 8.27799L2.38528 5.80654L4.69444 7.1403L3.26695 9.61174L0.957794 8.27799ZM2.3861 5.80514C2.77121 5.14024 3.55729 4.80749 4.31134 5.01158L3.61465 7.58563C4.03792 7.70019 4.47909 7.5121 4.69363 7.1417L2.3861 5.80514ZM4.30804 5.01069C5.05605 5.21109 5.57504 5.88896 5.57504 6.6619H2.90838C2.90838 7.09464 3.19884 7.47424 3.61796 7.58652L4.30804 5.01069ZM5.57504 6.6619V14.4314H2.90838V6.6619H5.57504ZM5.57504 14.4314C5.57504 14.2795 5.51876 14.1414 5.42636 14.0357C5.33411 13.9301 5.17132 13.8212 4.94585 13.8063L4.77073 16.4672C3.64831 16.3934 2.90838 15.4156 2.90838 14.4314H5.57504ZM4.9287 13.8053C4.77118 13.797 4.57874 13.8547 4.4325 14.0007L6.31647 15.8879C5.89551 16.3082 5.33743 16.4973 4.78787 16.4683L4.9287 13.8053ZM4.43167 14.0015C4.30514 14.128 4.23481 14.3014 4.23481 14.4752H6.90148C6.90148 15.0048 6.69356 15.5108 6.31729 15.8871L4.43167 14.0015ZM4.23481 14.4752V9.39386H6.90148V14.4752H4.23481ZM4.23481 9.39386C4.23481 8.44968 5.00022 7.68427 5.94439 7.68427V10.3509C6.47298 10.3509 6.90148 9.92244 6.90148 9.39386H4.23481ZM5.94439 7.68427C6.88804 7.68427 7.65398 8.44891 7.65398 9.39386H4.98731C4.98731 9.92274 5.41635 10.3509 5.94439 10.3509V7.68427ZM7.65398 9.39391L7.65374 15.6303L4.98708 15.6302L4.98731 9.39381L7.65398 9.39391ZM7.65374 15.6302C7.65374 15.2595 7.35434 14.9601 6.98361 14.9601V17.6268C5.8816 17.6268 4.98708 16.7323 4.98708 15.6302H7.65374ZM6.98361 14.9601C6.81007 14.9601 6.63754 15.03 6.51126 15.156L8.39506 17.0435C8.01857 17.4193 7.51243 17.6268 6.98361 17.6268V14.9601ZM6.50947 15.1578C6.3834 15.2841 6.31349 15.4567 6.31349 15.6302H8.98015C8.98015 16.159 8.77265 16.6652 8.39686 17.0417L6.50947 15.1578ZM6.31349 15.6302V9.39385H8.98015V15.6302H6.31349ZM6.31349 9.39385C6.31349 8.45023 7.07811 7.68427 8.02307 7.68427V10.3509C8.55197 10.3509 8.98015 9.92188 8.98015 9.39385H6.31349ZM8.02307 7.68427C8.9667 7.68427 9.73266 8.4489 9.73266 9.39385H7.06599C7.06599 9.92274 7.49503 10.3509 8.02307 10.3509V7.68427ZM9.73266 9.39391L9.73242 14.4168L7.06575 14.4167L7.06599 9.39379L9.73266 9.39391ZM9.73242 14.4168V14.4752H7.06575V14.4168H9.73242ZM9.73242 14.4752C9.73242 14.1036 9.43237 13.8048 9.06253 13.8048V16.4715C7.96092 16.4715 7.06575 15.5777 7.06575 14.4752H9.73242ZM9.06253 13.8048C8.88536 13.8048 8.71384 13.8769 8.59104 13.9992L10.4731 15.8884C10.0987 16.2614 9.59451 16.4715 9.06253 16.4715V13.8048ZM8.59016 14.0001C8.46262 14.1274 8.3924 14.3014 8.3924 14.475H11.0591C11.0591 15.0043 10.8513 15.5109 10.474 15.8875L8.59016 14.0001ZM8.3924 14.475V9.39359H11.0591V14.475H8.3924ZM8.3924 9.39359C8.3924 8.44995 9.15704 7.684 10.102 7.684V10.3507C10.6309 10.3507 11.0591 9.92164 11.0591 9.39359H8.3924ZM10.102 7.684C11.0456 7.684 11.8116 8.44863 11.8116 9.39359H9.14491C9.14491 9.92248 9.57395 10.3507 10.102 10.3507V7.684ZM11.8116 9.39375L11.8111 13.2293L9.14443 13.229L9.14491 9.39342L11.8116 9.39375ZM11.8111 13.2291C11.8111 12.8593 11.5123 12.5592 11.1407 12.5592V15.2259C10.0383 15.2259 9.14443 14.3308 9.14443 13.2291H11.8111ZM11.1407 12.5592C10.9658 12.5592 10.7933 12.6301 10.6679 12.7552L12.5517 14.6426C12.1766 15.017 11.6714 15.2259 11.1407 15.2259V12.5592ZM10.667 12.7561C10.54 12.8831 10.4704 13.0564 10.4704 13.2291H13.137C13.137 13.7572 12.9303 14.2641 12.5526 14.6417L10.667 12.7561ZM10.4704 13.2291L10.4706 5.45474L13.1373 5.45482L13.137 13.2292L10.4704 13.2291ZM10.4706 5.45478C10.4706 3.47691 9.03249 2.08556 7.52569 2.08556V-0.581102C10.7371 -0.581102 13.1373 2.24718 13.1373 5.45478H10.4706ZM6.24366 0.385937L6.24368 0.385859L8.80774 1.11845L8.80772 1.11853L6.24366 0.385937Z" fill="#4CAF4F" mask="url(#path-1-inside-1_16_1457)"/>
</svg>
